<svg width="70" height="70" viewBox="0 0 265 279" fill="none" xmlns="http://www.w3.org/2000/svg">
<path d="M78.757 67.024C61.2226 74.016 45.8676 76.874 44.4835 73.4C44.3891 73.153 44.3577 72.888 44.3981 72.587C44.9778 68.736 57.4479 60.962 73.747 54.459C90.081 47.961 104.493 45.023 107.521 47.458C107.535 47.458 107.535 47.458 107.535 47.476C107.764 47.647 107.912 47.849 108.007 48.083C109.391 51.552 96.292 60.027 78.757 67.024Z" fill="#2A3134"/>
<path d="M166.493 235.268C147.179 250.916 153.838 245.519 152.4 246.687C150.899 247.905 148.832 247.59 147.763 245.986L141.422 236.459L137.715 230.905L166.493 235.268Z" fill="#70444D"/>
<path d="M166.493 235.268L161.087 239.636C154.993 235.39 147.659 234.558 141.422 236.459L137.715 230.905L166.493 235.268Z" fill="#5B353D"/>
<path d="M228.097 134.758C220.138 146.032 208.994 154.561 199.166 164.241C189.316 173.916 180.342 185.604 178.774 199.314L135.36 192.731C137.93 179.214 132.866 165.414 126.368 153.276C126.35 153.254 126.337 153.213 126.323 153.195C119.789 141.035 111.682 129.59 107.431 116.464C100.462 95.029 105.05 70.21 119.214 52.684C133.383 35.141 156.687 25.412 179.138 27.695L185.986 28.733C208.104 33.209 227.468 49.408 235.785 70.363C244.108 91.294 241.119 116.356 228.097 134.758Z" fill="#FFCA6C"/>
<path d="M228.096 134.758C220.138 146.032 208.993 154.561 199.165 164.241C189.315 173.916 180.341 185.604 178.773 199.314L135.359 192.731C137.929 179.214 132.865 165.414 126.367 153.276C174.832 177.848 226.946 138.793 224.097 88.396C222.654 63.271 206.602 39.679 184.084 28.445L185.985 28.733C208.103 33.209 227.467 49.408 235.785 70.363C244.107 91.294 241.119 116.356 228.096 134.758Z" fill="#FFB63C"/>
<path d="M183.012 196.483L181.56 206.028C181.345 207.47 180.104 208.472 178.783 208.27L132.691 201.283C131.388 201.085 130.485 199.759 130.705 198.317L132.156 188.768C132.372 187.325 133.63 186.327 134.934 186.525L181.026 193.513C182.347 193.715 183.232 195.036 183.012 196.483Z" fill="#CBDBF4"/>
<path d="M176.661 207.951L172.891 232.761C172.608 234.63 170.977 235.947 169.265 235.687L134.51 230.42C132.798 230.159 131.652 228.425 131.936 226.551L135.706 201.741L176.661 207.951Z" fill="#EBF2FF"/>
<path d="M148.127 90.018C147.26 95.73 149.56 101.189 153.717 104.614C154.225 105.036 154.508 105.679 154.409 106.339L152.144 121.249C151.987 122.274 152.684 123.218 153.708 123.37L164.219 124.966C165.243 125.123 166.192 124.426 166.344 123.402L168.609 108.514C168.704 107.876 169.113 107.328 169.701 107.085C179.345 103.194 182.818 91.119 176.271 82.707C176.262 82.693 176.24 82.675 176.231 82.653C167.751 71.828 150.216 76.263 148.127 90.018Z" fill="#60B7BD"/>
<path d="M148.127 90.018C147.26 95.73 149.56 101.19 153.717 104.614C154.225 105.036 154.508 105.679 154.409 106.339L152.144 121.249C151.987 122.274 152.684 123.218 153.708 123.371L157.658 123.973C156.634 123.815 155.937 122.872 156.094 121.847L158.431 106.452C158.534 105.791 158.251 105.149 157.739 104.726C145.826 94.925 153.609 76.825 168.097 77.175C158.593 74.569 149.52 80.855 148.127 90.018Z" fill="#EEB95C"/>
<path d="M141.589 91.941C134.255 113.916 136.789 106.326 136.241 107.971C135.396 110.523 132.821 112.037 130.237 111.642C126.782 111.121 124.787 107.669 125.834 104.506C133.981 80.096 130.085 91.771 131.186 88.481L141.589 91.941Z" fill="#C07C5C"/>
<path d="M158.341 97.505C157.797 99.145 160.314 91.569 153.011 113.538C152.162 116.109 149.574 117.619 146.985 117.228C143.606 116.715 141.543 113.291 142.604 110.074L142.712 109.75L147.951 94.067L158.341 97.505Z" fill="#C07C5C"/>
<path d="M176.663 207.951L174.622 221.361C163.959 209.556 148.689 205.507 134.543 209.412L135.707 201.741L176.663 207.951Z" fill="#DBE6FA"/>
<path d="M171.418 95.932C170.186 99.644 166.169 101.643 162.453 100.412C89.1063 76.02 90.1083 76.353 88.6523 75.867L93.1283 62.427C164.205 86.068 166.924 86.953 167.09 87.039C170.703 88.329 172.622 92.27 171.418 95.932Z" fill="#C07C5C"/>
<path d="M184.898 17.238C183.527 17.031 182.583 15.75 182.79 14.38L183.891 7.082C184.098 5.707 185.387 4.754 186.754 4.97C188.124 5.177 189.068 6.457 188.861 7.828L187.76 15.13C187.549 16.514 186.25 17.449 184.898 17.238Z" fill="#FFB63C"/>
<path d="M223.935 35.716C221.827 35.716 220.623 33.227 222.016 31.582L227.054 25.632C227.948 24.576 229.534 24.441 230.595 25.336C231.655 26.234 231.79 27.816 230.891 28.877L225.858 34.826C225.36 35.41 224.65 35.716 223.935 35.716Z" fill="#FFB63C"/>
<path d="M247.883 71.073C247.42 69.765 248.107 68.331 249.419 67.873L256.151 65.5C257.459 65.042 258.897 65.73 259.36 67.037C259.818 68.345 259.13 69.778 257.823 70.241L251.087 72.609C249.765 73.072 248.341 72.371 247.883 71.073Z" fill="#FFB63C"/>
<path d="M261.153 121.218L253.846 119.919C252.48 119.677 251.568 118.374 251.811 117.003C252.058 115.641 253.37 114.734 254.727 114.972L262.034 116.275C263.4 116.518 264.312 117.821 264.069 119.187C263.827 120.539 262.542 121.465 261.153 121.218Z" fill="#FFB63C"/>
<path d="M139.1 21.75L136.04 14.582C135.496 13.306 136.089 11.827 137.37 11.284C138.646 10.74 140.124 11.333 140.668 12.614L143.724 19.781C144.268 21.053 143.674 22.531 142.394 23.075C141.131 23.614 139.644 23.035 139.1 21.75Z" fill="#FFB63C"/>
<path d="M182.652 198.842L181.56 206.028C181.345 207.47 180.104 208.472 178.783 208.27L132.691 201.283C131.388 201.085 130.485 199.759 130.705 198.317L131.635 192.187C134.417 195.068 138.209 196.685 141.917 197.975C155.313 202.694 169.571 204.666 182.652 198.842Z" fill="#BBCFEF"/>
<path d="M98.443 82.433C98.443 82.433 98.439 82.469 98.421 82.464C90.907 90.917 78.833 94.566 67.4277 90.782C53.4702 86.131 45.3905 71.989 47.9834 57.942C51.0975 40.686 68.9466 29.964 85.811 35.577C105.786 42.214 112.118 67.091 98.443 82.433Z" fill="#C07C5C"/>
<path d="M71.122 79.678C80.244 82.711 90.099 77.782 93.132 68.673C96.17 59.56 91.236 49.714 82.118 46.681C72.996 43.647 63.1413 48.577 60.1036 57.686C57.0703 66.799 61.9999 76.645 71.122 79.678Z" fill="#6DC2C8"/>
<path d="M139.562 98.008L136.241 107.971C135.396 110.523 132.821 112.037 130.237 111.642C126.782 111.121 124.787 107.669 125.834 104.506L126.139 103.621C127.438 105.243 129.793 105.926 131.873 105.517C135.585 104.798 137.98 101.464 139.562 98.008Z" fill="#C07C5C"/>
<path d="M155.824 105.059L153.011 113.538C152.162 116.109 149.574 117.619 146.985 117.228C143.606 116.715 141.543 113.291 142.604 110.074L142.712 109.75C144.226 110.703 146.172 111.035 147.956 110.716C151.277 110.128 153.87 107.764 155.824 105.059Z" fill="#C07C5C"/>
<path d="M98.421 82.464C90.907 90.917 78.833 94.566 67.4277 90.782C53.4702 86.131 45.3905 71.989 47.9834 57.942C49.1293 68.066 55.034 77.714 63.8372 82.949C74.263 89.155 88.171 88.863 98.421 82.464Z" fill="#C07C5C"/>
<path d="M171.418 95.932C170.187 99.644 166.17 101.643 162.453 100.412L158.881 99.226C163.918 97.657 167.554 92.804 167.091 87.039C170.704 88.329 172.623 92.27 171.418 95.932Z" fill="#C07C5C"/>
<mask id="mask0_55_2" style="mask-type:luminance" maskUnits="userSpaceOnUse" x="0" y="0" width="126" height="56">
<path d="M0 0H125.19V55.349H0V0Z" fill="white"/>
</mask>
<g mask="url(#mask0_55_2)">
<path d="M0.15625 49.966L2.58735 54.733C2.75815 54.644 12.532 49.476 11.2648 50.145L43.7363 49.669L111.731 6.50701C110.073 10.017 109.897 7.77401 124.736 4.43101L121.931 0.0310059L52.0766 4.19301L0.15625 49.966Z" fill="#2A3134"/>
</g>
<path d="M46.519 54.077L2.58398 54.733L54.8729 8.596L124.728 4.435L46.519 54.077Z" fill="#3D4449"/>
<path d="M107.516 47.463C104.5 45.018 90.071 47.966 73.75 54.459C57.4423 60.957 44.9722 68.745 44.4015 72.596L43.7499 67.051L43.2151 62.633L40.6672 41.455C40.465 39.895 41.1166 38.322 42.3568 37.352C53.8068 28.679 67.297 22.819 83.668 20.941C86.903 20.55 88.256 23.57 88.966 24.226C114.387 56.073 105.619 45.085 107.516 47.463Z" fill="#4F575F"/>
<path d="M107.515 47.463C104.5 45.018 90.071 47.966 73.75 54.459C57.4419 60.957 44.9719 68.745 44.4012 72.596L43.7496 67.051L43.2148 62.633C57.2397 56.67 71.485 50.123 81.488 38.704C85.11 34.552 88.161 29.582 88.965 24.226C114.386 56.073 105.619 45.085 107.515 47.463Z" fill="#3D4449"/>
<path d="M130.65 62.22C132.182 57.466 136.298 54.248 140.122 51.314C141.749 50.065 142.571 48.087 141.475 46.159C140.567 44.56 137.929 43.571 136.316 44.807C130.811 49.035 125.581 53.385 123.374 60.216C121.882 64.844 129.162 66.826 130.65 62.22Z" fill="white" fill-opacity="0.4"/>
<path d="M149.849 45.836C150.051 45.732 150.258 45.629 150.46 45.53C152.226 44.645 152.868 42.007 151.812 40.376C150.649 38.57 148.546 38.075 146.654 39.023C146.451 39.127 146.245 39.226 146.043 39.329C144.272 40.21 143.634 42.848 144.69 44.483C145.854 46.29 147.957 46.78 149.849 45.836Z" fill="white" fill-opacity="0.4"/>
<path d="M48.8236 42.479C51.2502 40.983 53.7712 39.639 56.4045 38.547C57.6538 38.026 58.5615 36.88 58.1616 35.455C57.829 34.278 56.3326 33.177 55.0699 33.703C52.0232 34.966 49.0977 36.413 46.2847 38.143C43.5345 39.832 46.06 44.178 48.8236 42.479Z" fill="white" fill-opacity="0.4"/>
<path d="M64.8348 35.033C65.3606 34.817 65.8908 34.597 66.4166 34.377C67.6659 33.856 68.5646 32.714 68.1692 31.29C67.8456 30.108 66.3402 29.007 65.0775 29.533C64.5517 29.753 64.026 29.973 63.5002 30.189C62.2464 30.71 61.3522 31.856 61.7431 33.28C62.0712 34.462 63.5766 35.559 64.8348 35.033Z" fill="white" fill-opacity="0.4"/>
<path d="M154 279C189.899 279 219 274.299 219 268.5C219 262.701 189.899 258 154 258C118.101 258 89 262.701 89 268.5C89 274.299 118.101 279 154 279Z" fill="#70444D" fill-opacity="0.1"/>
</svg>
